# xmcd CD database file
#
# Track frame offsets:
#	150
#	20981
#	49272
#	81479
#	98445
#	123674
#	151364
#	164574
#	180570
#	195401
#
# Disc length: 2652 seconds
#
# Revision: 0
# Processed by: cddbd v1.5.1PL0 Copyright (c) Steve Scherf et al.
# Submitted via: CDex 1.51
#
DISCID=830a5a0a
DTITLE=David Bowie - The Freakiest Show
DYEAR=1900
DGENRE=Rock
TTITLE0=Five Years(Unreleased 1972 Studio Version)
TTITLE1=Waiting For The Man(Nassau Coliseum 23-03-76)
TTITLE2="Heroes" (Earl's Court, London July 1st 1978)
TTITLE3=What In The World(Earl's Court, London July 1st 1978)
TTITLE4=Space Oddity(Marquee, London October 1973)
TTITLE5=Sprits In The Night(Trident Studios, London 1973)
TTITLE6=Rupert The Riley(Unused Rykodisc Bounus Track)
TTITLE7=Miss Peculiar(Unused Rykodisc Bounus Track)
TTITLE8=Life On Mars?(Unreleased Peter Noone Acetate)
TTITLE9=Untitled(Form 'Black The White Noise'Sessions)
EXTD=
EXTT0=
EXTT1=
EXTT2=
EXTT3=
EXTT4=
EXTT5=
EXTT6=
EXTT7=
EXTT8=
EXTT9=
PLAYORDER=
